<?xml version="1.0" encoding="utf-8"?>
<!-- Generator: Adobe Illustrator 26.5.0, SVG Export Plug-In . SVG Version: 6.00 Build 0)  -->
<svg version="1.1" id="contents" xmlns="http://www.w3.org/2000/svg" xmlns:xlink="http://www.w3.org/1999/xlink" x="0px" y="0px"
	 viewBox="0 0 800 800" style="enable-background:new 0 0 800 800;" xml:space="preserve">
<path d="M572.4,285.4V262c0-121.6-75.7-169.1-169-169.1S234.3,134.6,234.3,262v23.4c-69.6,20.6-114.6,53.5-114.6,90.7
	c0,62.4,127,112.9,283.7,112.9S687,438.4,687,376C687,338.9,642,306,572.4,285.4L572.4,285.4z M592.1,338.8
	c-8.6,21.5-31.2,41-63.5,55c-34.4,14.9-77.7,22.8-125.3,22.8s-89.5-8.1-123.9-23.6c-30.3-13.6-53.2-32.5-64.4-53.2
	c-2.7-5.1-0.9-11.4,4.2-14.1c5.1-2.7,11.4-0.9,14.1,4.2c8.9,16.4,28.8,32.5,54.6,44.1c31.7,14.2,71.6,21.7,115.3,21.7
	c94.1,0,156.5-32.6,169.4-64.7c2.2-5.3,8.2-7.9,13.6-5.8S594.2,333.4,592.1,338.8L592.1,338.8z"/>
</svg>
