<?xml version="1.0" encoding="UTF-8"?><svg id="contents" xmlns="http://www.w3.org/2000/svg" viewBox="0 0 800 800"><defs><style>.cls-1{stroke-width:11.9px;}.cls-1,.cls-2{fill:#231815;}.cls-1,.cls-3{stroke:#231815;stroke-miterlimit:10;}.cls-3{fill:#fff;stroke-width:9.32px;}</style></defs><path class="cls-3" d="M392.13,618.87c-83.27-1.21-150.38-32.08-149.9-68.95,0-.16,0-.31,0-.46,.34-11.93,13.14-18.47,22.38-11.62,26.26,19.51,73.74,32.96,128.12,33.75,54.39,.79,102.2-11.27,128.96-30,9.41-6.59,22.04,.33,22.07,12.26,0,.15,0,.31,0,.47-.48,36.87-68.37,65.77-151.64,64.55Zm64.29-34.19c2.28,8.65,6.56,16.7,12.37,23.24m18.66-35.69c5.54,8.33,12.57,15.55,20.6,21.17"/><g><path class="cls-2" d="M338.18,444.41c-6.7,14.5-20.6,24.67-35.53,30.34-14.93,5.67-31.03,7.38-46.92,9.05-18.41,1.93-36.82,3.86-55.24,5.79,24.38-9.52,49.86-21.42,63.32-43.87l74.37-1.31Z"/><path class="cls-2" d="M336.02,443.15c-7.21,15.42-22.22,25.38-37.98,30.59-9.58,3.17-19.57,4.9-29.57,6.14s-20.99,2.28-31.48,3.38c-12.16,1.28-24.33,2.55-36.49,3.83l.66,4.91c19.28-7.53,39.07-16.22,53.9-31.11,4.17-4.18,7.86-8.85,10.91-13.91l-2.16,1.24c8.42-.15,16.85-.3,25.27-.45,13.31-.24,26.63-.47,39.94-.71,3.05-.05,6.1-.11,9.16-.16,3.21-.06,3.22-5.06,0-5-4.9,.09-9.8,.17-14.7,.26-10.06,.18-20.11,.36-30.17,.53l-25.24,.45c-1.41,.02-2.85-.02-4.26,.08-2.15,.15-3.14,2.88-4.23,4.46s-2.25,3.15-3.49,4.65c-2.57,3.1-5.41,5.98-8.43,8.65-12.17,10.73-27.18,17.85-42.09,23.91-1.91,.78-3.83,1.54-5.75,2.29-1.16,.45-1.99,1.43-1.79,2.74,.17,1.12,1.2,2.3,2.46,2.17,21.81-2.29,43.65-4.35,65.43-6.9,19.35-2.27,39.32-5.97,55.48-17.57,7.94-5.7,14.76-13.04,18.93-21.95,.57-1.22,.34-2.7-.9-3.42-1.08-.63-2.85-.33-3.42,.9Z"/></g><g><path class="cls-2" d="M404.7,432.41c-4.15,9.18-12.03,16.05-19.67,22.62-10.55,9.07-21.2,18.21-33.43,24.84-12.23,6.63-26.32,10.64-40.09,8.66,12.36-4.69,20.82-18.06,19.77-31.23l73.42-24.88Z"/><path class="cls-2" d="M402.54,431.14c-2.88,6.26-7.42,11.38-12.41,16.04-5.21,4.87-10.72,9.47-16.21,14.01-11.3,9.36-23.55,18.15-37.72,22.53-7.72,2.39-15.96,3.5-24.02,2.38v4.82c13.4-5.19,22.66-19.2,21.61-33.64l-1.84,2.41c8.28-2.81,16.57-5.61,24.85-8.42,13.19-4.47,26.37-8.94,39.56-13.41,3-1.02,6.01-2.04,9.01-3.05s1.73-5.86-1.33-4.82c-8.28,2.81-16.57,5.61-24.85,8.42-13.19,4.47-26.37,8.94-39.56,13.41-3,1.02-6.01,2.04-9.01,3.05-.98,.33-1.92,1.28-1.84,2.41,.88,12.09-6.53,24.41-17.94,28.82-1.04,.4-1.84,1.23-1.84,2.41,0,1,.77,2.26,1.84,2.41,15.55,2.17,30.98-2.49,44.39-10.24,6.79-3.92,13.12-8.6,19.22-13.52s11.72-9.69,17.36-14.76c5.97-5.37,11.65-11.37,15.04-18.74,.56-1.23,.35-2.69-.9-3.42-1.08-.63-2.85-.34-3.42,.9Z"/></g><path class="cls-1" d="M281.33,650.96l3.05,63.27c.49,10.1,11.7,16.59,21.63,12.54l77.47-31.64c12.42-5.07,12.3-21.54-.2-26.45l-80.52-31.64c-10.46-4.11-21.94,3.34-21.43,13.91Z"/><path class="cls-1" d="M504.67,650.96l-3.05,63.27c-.49,10.1-11.7,16.59-21.63,12.54l-77.47-31.64c-12.42-5.07-12.3-21.54,.2-26.45l80.52-31.64c10.46-4.11,21.94,3.34,21.43,13.91Z"/><path d="M559.05,257.16v-23.39c0-121.58-75.69-169.05-169.05-169.05s-169.05,41.68-169.05,169.05v23.39c-69.56,20.57-114.63,53.52-114.63,90.66,0,62.35,127.01,112.89,283.68,112.89s283.68-50.54,283.68-112.89c0-37.14-45.07-70.09-114.63-90.66Zm19.69,53.39c-8.64,21.46-31.19,40.99-63.49,54.99-34.41,14.92-77.72,22.8-125.26,22.8s-89.51-8.15-123.87-23.57c-30.32-13.61-53.18-32.48-64.38-53.16-2.74-5.06-.86-11.38,4.21-14.12,5.06-2.74,11.38-.86,14.12,4.21,8.89,16.43,28.79,32.49,54.58,44.06,31.7,14.22,71.58,21.74,115.34,21.74,94.11,0,156.46-32.57,169.41-64.74,2.15-5.34,8.22-7.93,13.56-5.78,5.34,2.15,7.92,8.22,5.77,13.56Z"/></svg>